# xmcd CD database file
#
# Track frame offsets:
#	150
#	18722
#	36818
#	50621
#	72864
#	90509
#	103154
#	117988
#	130282
#	141634
#	153758
#	178534
#	191855
#	204218
#	217674
#	229050
#	243682
#	259450
#	272213
#	285473
#	301676
#	325549
#	340874
#
# Disc length: 4728 seconds
#
# Revision: 4
# Processed by: cddbd v1.5.2PL0 Copyright (c) Steve Scherf et al.
# Submitted via: CDex 1.51
#
DISCID=53127617
DTITLE=Harry Belafonte - The greatest hits of
DYEAR=2003
DGENRE=Jazz
TTITLE0=Try to remember - Harry Belafonte
TTITLE1=Midnight Special - Harry Belafonte
TTITLE2=Day-O (Banana Boat song) - Harry Belafonte
TTITLE3=Mr. Bojangles - Harry Belafonte
TTITLE4=Angelina - Harry Belafonte
TTITLE5=Island in the sun - Harry Belafonte
TTITLE6=Coconut Woman - Harry Belafonte
TTITLE7=Venezuela - Harry Belafonte
TTITLE8=Matilda! - Harry Belafonte
TTITLE9=Angelique-o - Harry Belafonte
TTITLE10=Cu-Cu-Ru-Cu-Cu Paloma - Harry Belafonte
TTITLE11=When the Saints go Marching in - Harry Belafonte
TTITLE12=Scarlet Ribbons (for her hair) - Harry Belafonte
TTITLE13=Mary's Boy Child - Harry Belafonte
TTITLE14=Man Smart (Woman smarter) - Harry Belafonte
TTITLE15=Hava Nageela - Harry Belafonte
TTITLE16=Scarborough Fair (Canticle) - Harry Belafonte
TTITLE17=Jamaica Farewell - Harry Belafonte
TTITLE18=Land Of the Sea and Sun - Harry Belafonte
TTITLE19=If I were a Carpenter - Harry Belafonte
TTITLE20=Cotton fields - Harry Belafonte
TTITLE21=Unchained melody - Harry Belafonte
TTITLE22=My god is rock - Harry Belafonte
EXTD=YEAR: 2003
EXTT0=
EXTT1=
EXTT2=
EXTT3=
EXTT4=
EXTT5=
EXTT6=
EXTT7=
EXTT8=
EXTT9=
EXTT10=
EXTT11=
EXTT12=
EXTT13=
EXTT14=
EXTT15=
EXTT16=
EXTT17=
EXTT18=
EXTT19=
EXTT20=
EXTT21=
EXTT22=
PLAYORDER=
